<svg xmlns="http://www.w3.org/2000/svg" width="270.835205078125" height="135.45600280761718" viewBox="0 0 270.835205078125 135.45600280761718" class="css-1j8o68f"><defs id="SvgjsDefs6630"></defs><g id="SvgjsG6631" featurekey="ECw45b-0" transform="matrix(1.5511630773544312,0,0,1.5511630773544312,57.9422586426219,-36.546595259441055)" fill="#ff9f68"><g xmlns="http://www.w3.org/2000/svg"><path d="M78.4,24.8l-0.1-0.2c-0.1-0.1-0.2-0.2-0.3-0.3c-0.2-0.1-0.4-0.3-0.6-0.4c-0.4-0.2-0.8-0.3-1.1-0.3c-0.7-0.1-1.5,0-2.2,0.2   c-0.4,0.1-0.7,0.3-1.1,0.6c-0.3,0.3-0.7,0.8-0.8,1.1c-0.3,0.8-0.3,1.5-0.3,2.1l0,1.7c0,2.3,0,4.6,0,6.9c0,2.3,0,4.6,0.1,6.9   l0.1,3.4c0,1.1,0,2.3,0.3,3.5c0.1,0.6,0.3,1.2,0.7,1.7c0.4,0.5,0.9,0.9,1.5,1.1c0.3,0.1,0.7,0.2,1,0.2l-1,13.5L74.2,70L74,71.7   c0,0.6-0.1,1.2,0,1.9c0,1.4,1.9,3.5,3.9,2c0.2-0.2,0.4-0.4,0.4-0.6c0.1-0.2,0.2-0.4,0.2-0.6c0.1-0.4,0.1-0.7,0.1-1.1l0-1.7   l-0.3-6.9c-0.1-2.3-0.2-4.6-0.2-6.9c0-2.3,0-4.6,0-6.9c0-2.3,0.1-4.6,0.2-6.9c0.2-4.6,0.4-9.1,0.4-13.7l0.1-3.4   c0-0.6,0.1-1.4-0.4-2.2C78.4,24.9,78.4,24.9,78.4,24.8z M73.2,49.8c-0.1-1,0-2.2,0.1-3.3l0.2-3.4c0.1-2.3,0.2-4.6,0.3-6.9   c0.1-2.3,0.1-4.6,0.2-6.9c0.1-1.1,0-2.4,0.2-3c0-0.4,1-0.7,1.8-0.7c0.4,0,0.7,0.2,0.7,0.3c0.2,0.2,0.2,0.6,0.2,1.1l0,3.4   c0,2.3,0.1,4.6,0.1,6.9c0,2.3,0.1,4.6,0.2,6.9c0.1,2.3,0.2,4.6,0.2,6.9c0,0.5,0,1,0,1.5c-1,0-1.9,0-2.7-0.4   C73.8,51.8,73.3,50.9,73.2,49.8z M77.5,58c0,2.3-0.1,4.6-0.2,6.9L77,71.7c0,1.1,0,2.6-0.3,2.6c0,0,0,0-0.1,0   c-0.1,0-0.2-0.1-0.4-0.1c-0.2-0.1-0.4-0.4-0.4-0.8c-0.1-0.8,0.1-2.1,0.1-3.2C76,69,76,67.9,76,66.7c0.2-4.5,0.1-9.1-0.2-13.6   c0.5,0,1.1-0.1,1.6-0.2C77.5,54.6,77.5,56.3,77.5,58z"></path><path d="M93.4,33.9c-0.1-0.9-0.3-1.7-0.4-2.3c0.1-0.3,0.1-0.6,0.1-1.1c0-0.7-0.2-1.6-0.6-2.5c-0.2-0.5-0.5-0.9-0.9-1.4   c-0.1-0.1-0.1-0.1-0.2-0.2l-0.1-0.1L90.9,26c-0.3-0.2-0.5-0.4-0.8-0.6c-1.1-0.6-2.6-0.9-4.1-0.7C84.5,25,83,26,82.2,27.4   c-0.7,1.4-1,2.9-1.1,4.4c-0.1,0.8-0.1,1.5-0.2,2.3c-0.1,0.8-0.1,1.5-0.1,2.3c0,0.8,0.1,1.6,0.4,2.4c0.3,0.8,0.7,1.6,1.4,2.2l0,0   l0,0c0,0,0.1,0.1,0.1,0.1l0.1,0l0.1,0.1l0.2,0.2c0.2,0.1,0.4,0.3,0.6,0.4c0.4,0.2,0.8,0.4,1.2,0.5c0.2,0.1,0.4,0.1,0.6,0.1   c0,0.5,0,1-0.1,1.7c-0.1,1.9,0,4.6-0.1,7.8c0,1.6-0.2,3.3-0.4,5.2c-0.2,1.9-0.3,3.8-0.3,5.9c0,2-0.1,4.1-0.2,6.3   c0,1.1,0.1,2.2,0.2,3.3c0.1,0.6,0.3,1.2,0.6,1.8c0.2,0.3,0.4,0.6,0.8,0.8c0.3,0.2,0.8,0.4,1.2,0.4c0.1,0,0.2,0,0.3,0   c0.1,0,0.1,0,0.2,0l0.1,0c0.3-0.1,0.4-0.2,0.6-0.3c0.4-0.2,0.6-0.5,0.8-0.9c0.4-0.7,0.4-1.4,0.5-2c0-1.1,0-2.2,0-3.2   c0-2.1,0-4.2,0-6.3c-0.1-2-0.1-4-0.1-5.8c-0.1-1.9-0.1-3.6-0.2-5.2c-0.1-1.6-0.2-3.1-0.3-4.4c-0.1-1.3-0.2-2.5-0.2-3.4   c-0.1-0.6-0.1-1.2-0.1-1.6c0.3-0.1,0.5-0.1,0.8-0.2c0.8-0.3,1.5-0.6,2.1-1.2c0.6-0.5,1.1-1.3,1.3-2c0.2-0.7,0.3-1.4,0.4-1.9   C93.6,35.9,93.5,34.8,93.4,33.9z M88.4,44.1c-0.1,0.9-0.1,2.1-0.2,3.4c-0.1,1.3-0.1,2.8-0.2,4.4c-0.1,1.6-0.1,3.4-0.1,5.2   c0,1.9,0,3.8,0,5.9c0.1,2,0.1,4.1,0.2,6.3c0,1.1,0.1,2.1,0.1,3.2c0,0.5,0,0.9-0.2,1.2c-0.1,0.1-0.2,0.3-0.3,0.3   c0,0-0.1,0.1-0.1,0.1l-0.1,0c0,0,0,0,0,0c0,0-0.1,0-0.1,0c-0.2,0-0.4-0.1-0.7-0.4c-0.2-0.3-0.4-0.7-0.5-1.2c-0.2-1-0.3-2.1-0.3-3.1   c-0.1-2.1,0-4.2-0.1-6.2c0-2,0-4,0.1-5.8c0.1-1.8,0.2-3.6,0.1-5.3c0-3.3-0.2-6-0.2-7.9c0-0.7,0-1.2,0-1.7c0.5,0.1,1,0.1,1.5,0.1   c0.4,0,0.7,0,1.1-0.1C88.4,43,88.4,43.5,88.4,44.1z M92.1,33.9c-0.1,0.9-0.1,1.9-0.4,2.9c-0.1,0.6-0.2,1.1-0.4,1.5   c-0.2,0.4-0.5,0.8-0.8,1.1c-0.8,0.6-1.9,1-3.2,1.1c-1.2,0.1-2.6-0.1-3.5-0.8c-0.9-0.7-1.5-2-1.8-3.4c-0.3-1.4-0.4-3-0.3-4.4   c0.1-1.5,0.6-2.9,1.4-3.9c0.8-1,2-1.4,3.1-1.5c1.1-0.1,2.2,0,3,0.5c0.2,0.1,0.4,0.2,0.6,0.3l0.3,0.2l0.2,0.1c0,0,0.1,0.1,0.1,0.1   c0.3,0.3,0.6,0.6,0.9,0.9c0.4,0.6,0.7,1.2,0.9,1.8c0,0.3,0,0.7,0,1.1C92.2,32.2,92.2,33,92.1,33.9z"></path><path d="M18.8,31.3c-0.3-3.5-0.9-5.9-0.9-5.9l-0.2,0c0,0-0.4,2.4-0.5,5.9c0,0.9-0.1,1.8-0.1,2.8c-0.1,1-0.2,2-0.4,2.9   c-0.2,0.9-0.7,1.7-1.4,2.3L15,39.5c-0.1,0.1-0.3,0.1-0.4,0.2c-0.2,0.1-0.4,0.2-0.7,0.3c-0.5,0.1-1,0.2-1.5,0.2c-1,0-2.1-0.3-3-0.8   c-0.8-0.5-1.4-1.4-1.7-2.3c-0.3-0.9-0.3-2-0.4-3c-0.1-1-0.1-1.9-0.1-2.8c-0.1-3.5-0.1-5.9-0.1-5.9l-0.2,0c0,0-0.1,2.3-0.4,5.9   C6.5,32,6.5,33,6.5,34c0,1-0.1,2.1,0.2,3.3c0.3,1.2,1,2.4,2,3.1c0.5,0.4,1.1,0.7,1.8,0.9c0.1,0,0.1,0,0.2,0   c-0.1,1.7-0.2,5.4-0.4,10.2c-0.1,1.7-0.1,3.5-0.2,5.4c0,1.9-0.1,4-0.1,6.1c0,1.1,0,2.1-0.1,3.2c0,1.1-0.1,2.2-0.1,3.3   c0,1.1,0,2.3,0.1,3.4c0.1,0.6,0.2,1.3,0.6,1.9c0.3,0.6,1,1.2,1.8,1.4c0.4,0.1,0.8,0.1,1.2,0c0.2-0.1,0.4-0.1,0.6-0.3   c0.1-0.1,0.4-0.3,0.5-0.4c0.6-0.7,0.7-1.4,0.8-2c0.2-1.2,0.2-2.3,0.2-3.5c0-1.1,0-2.2-0.1-3.3l0-0.8l0-0.4l0-0.4c0-0.5,0-1.1,0-1.6   c0-2.1,0-4.1-0.1-6.1c-0.1-1.9-0.1-3.8-0.2-5.4c-0.1-1.7-0.2-3.2-0.3-4.6c-0.1-1.4-0.2-2.6-0.2-3.5c-0.1-1.1-0.2-1.9-0.2-2.4   c0,0,0,0,0,0c0.3-0.1,0.6-0.1,1-0.3c0.1-0.1,0.3-0.1,0.4-0.2l0.5-0.3c0.6-0.4,1.1-0.9,1.5-1.5c0.4-0.6,0.6-1.2,0.8-1.8   c0.3-1.2,0.4-2.4,0.3-3.4C18.9,33.1,18.8,32.2,18.8,31.3z M13.9,44c-0.1,1-0.1,2.2-0.2,3.6c-0.1,1.4-0.1,2.9-0.2,4.6   c-0.1,1.7-0.1,3.5-0.1,5.4c0,1.9,0,4,0,6.1c0,0.5,0,1.1,0,1.6l0,0.4l0,0.4l0,0.8c0.1,1.1,0.2,2.2,0.2,3.3c0.1,2,0.2,5.1-1.1,4.6   c-0.7-0.1-1.1-0.9-1.2-1.9c-0.2-1.1-0.2-2.1-0.2-3.2c0-1.1,0-2.2,0-3.3c0-1.1,0-2.2-0.1-3.2C11,61,11,59,11,57.1c0-1.9,0-3.8,0-5.4   c0-4.8,0-8.5,0-10.2c0.5,0.1,1,0.2,1.5,0.3c0.5,0,1.1,0,1.6-0.1C14,42.2,14,43,13.9,44z"></path><path d="M10.4,34.5c0,0.5,0.1,1,0.1,1.3c0,0.2,0,0.3,0,0.4c0,0,0,0.1,0,0.1c0,0,0,0,0,0l0,0l0,0c0,0,0,0,0,0l0.1,0c0,0,0,0,0,0   l-0.1,0c0,0,0,0,0,0l0.1,0c0,0,0,0,0,0c0,0,0,0,0,0l0,0c0,0,0,0,0,0c0,0,0-0.1,0-0.1c0-0.1,0-0.2,0-0.4c0-0.3,0-0.7,0.1-1.3   c0.1-1,0.1-2.4,0.2-3.8c0-0.7,0.1-1.4,0.1-2.1c0-0.7-0.1-1.3-0.1-1.8c-0.1-1-0.4-1.7-0.4-1.7l-0.1,0c0,0-0.2,0.7-0.3,1.8   C10,27.4,10,28,10,28.7c0,0.7,0.1,1.4,0.1,2.1C10.2,32.1,10.3,33.5,10.4,34.5z"></path><path d="M14.6,36.5L14.6,36.5L14.6,36.5l0.2,0c0.1-1.8,0.3-3.7,0.4-5.5c0.1-0.9,0.2-1.8,0.1-2.8c-0.1-0.9-0.2-1.8-0.4-2.8l-0.1,0   c-0.3,0.9-0.4,1.8-0.5,2.8c-0.1,0.9,0,1.8,0.1,2.8C14.4,32.8,14.5,34.7,14.6,36.5z"></path><path d="M63.5,36.5c-1.3-1.7-2.8-3.2-4.4-4.4c-3.2-2.5-6.7-4.1-10.1-4.9c-3.4-0.8-6.7-0.6-9.5,0.1c-2.8,0.7-4.9,2-6.6,3.1   c-1.6,1.2-2.8,2.2-3.6,3c-0.8,0.7-1.2,1.1-1.2,1.1l0.1,0.1c0,0,0.4-0.4,1.3-1c0.8-0.6,2.1-1.6,3.7-2.6c1.7-1,3.8-2.1,6.4-2.6   c2.6-0.5,5.7-0.5,8.9,0.4c3.2,0.8,6.4,2.4,9.3,4.8c1.4,1.2,2.7,2.6,3.9,4.1c1.2,1.6,2.1,3.3,2.8,5.2c1.4,3.8,1.7,8.1,0.8,12.3   c-0.9,4.2-3.2,8.1-6.4,11c-3.2,2.9-7.3,4.9-11.6,5.5c-2.1,0.3-4.3,0.4-6.4,0.1c-2.1-0.3-4.1-0.9-6-1.7c-1.9-0.8-3.6-1.9-5.1-3.2   c-1.5-1.3-2.9-2.7-3.9-4.3c-2.1-3.1-3.3-6.7-3.6-10c-0.4-3.3,0.1-6.4,0.8-9c0.7-2.6,1.8-4.8,2.9-6.4c0.5-0.9,1.1-1.5,1.5-2.2   c0.5-0.6,0.9-1.1,1.3-1.5c0.7-0.8,1.1-1.2,1.1-1.2l-0.1-0.1c0,0-0.4,0.4-1.2,1.1c-0.4,0.4-0.8,0.9-1.3,1.5c-0.5,0.6-1,1.3-1.6,2.1   c-1.1,1.7-2.2,3.8-3.1,6.5c-0.8,2.7-1.3,5.8-1,9.2c0.3,3.4,1.4,7.1,3.6,10.4c1.1,1.7,2.5,3.2,4,4.6c1.6,1.4,3.4,2.6,5.3,3.5   c2,0.9,4.1,1.6,6.3,1.9c2.2,0.3,4.5,0.4,6.8,0c4.5-0.6,9-2.6,12.5-5.7c3.5-3.1,6.1-7.3,7.2-11.8c1.1-4.5,0.8-9.3-0.7-13.4   C65.9,40.2,64.8,38.2,63.5,36.5z"></path></g></g><g id="SvgjsG6632" featurekey="6sJQsk-0" transform="matrix(1.600000023841858,0,0,1.600000023841858,-2.4639995574951175,103.45600204467773)" fill="#111111"><path d="M12.04 17.56 l-2.76 2.44 l-4.98 0 l-2.76 -2.44 l0 -2.66 l2.14 0 l0 1.64 l1.52 1.32 l3.16 0 l1.52 -1.32 l0 -1.64 l-1.52 -1.3 l-3.76 0 l-2.76 -2.46 l0 -3.36 l2.76 -2.44 l4.66 0 l2.76 2.44 l0 2.44 l-2.14 0 l0 -1.52 l-1.42 -1.22 l-3.04 0 l-1.42 1.22 l0 1.52 l1.42 1.24 l3.86 0 l2.76 2.44 l0 3.66 z M21.312 12.719999999999999 l-1.22 1.08 l0 6.2 l-2.14 0 l0 -6.2 l-1.22 -1.08 l1.22 -1.06 l0 -6.32 l2.14 0 l0 6.32 z M43.724000000000004 5.34 l-1.98 6.36 l1.24 1.18 l-1.88 0.92 l-1.96 6.2 l-2.46 0 l-2.54 -10.8 l-2.54 10.8 l-2.46 0 l-1.96 -6.2 l-1.88 -0.92 l1.24 -1.18 l-1.98 -6.36 l2.44 0 l3.36 11.7 l2.56 -11.7 l2.44 0 l2.54 11.7 l3.36 -11.7 l2.46 0 z M69.328 17.58 l-2.74 2.42 l-5.2 0 l-2.76 -2.42 l0 -3.78 l-1.22 -1.08 l1.22 -1.06 l0 -3.88 l2.76 -2.44 l5.2 0 l2.74 2.44 l0 3.06 l-2.14 0 l0 -2.1 l-1.52 -1.26 l-3.38 0 l-1.52 1.32 l0 7.76 l1.52 1.32 l3.38 0 l1.52 -1.26 l0 -1.8 l2.14 0 l0 2.76 z M86.06000000000002 20 l-2.24 0 l-1.38 -3.66 l-6 0 l-1.38 3.66 l-2.24 0 l2.32 -6.2 l-1.02 -1.08 l1.78 -0.92 l2.42 -6.46 l2.24 0 z M81.64000000000001 14.2 l-2.2 -6 l-2.2 6 l4.4 0 z M99.81200000000001 7.48 l-4.26 0 l0 4.18 l1.22 1.06 l-1.22 1.06 l0 6.22 l-2.14 0 l0 -6.22 l-1.22 -1.06 l1.22 -1.06 l0 -4.18 l-4.28 0 l0 -2.14 l10.68 0 l0 2.14 z M113.48400000000001 19.98 l-8.86 0 l0 -6.2 l-1.22 -1.08 l1.22 -1.06 l0 -6.3 l8.86 0 l0 2.14 l-6.72 0 l0 4.16 l5.18 0 l0 2.14 l-5.18 0 l0 4.06 l6.72 0 l0 2.14 z M128.75600000000003 20 l-2.32 0 l-3.06 -6.2 l-2.62 0 l0 6.2 l-2.14 0 l0 -6.2 l-1.22 -1.08 l1.22 -1.06 l0 -6.32 l7.08 0 l2.38 2.76 l0 2.94 l-2.38 2.76 z M125.93600000000002 10.12 l0 -1.12 l-1.26 -1.5 l-3.92 0 l0 4.16 l3.92 0 z M137.52800000000002 12.719999999999999 l-1.22 1.08 l0 6.2 l-2.14 0 l0 -6.2 l-1.22 -1.08 l1.22 -1.06 l0 -6.32 l2.14 0 l0 6.32 z M154.68 12.719999999999999 l-1.22 1.06 l0 6.22 l-2.14 0 l-6.12 -10.86 l0 10.86 l-2.14 0 l0 -6.22 l-1.22 -1.06 l1.22 -1.08 l0 -6.3 l2.26 0 l6 10.56 l0 -10.56 l2.14 0 l0 6.3 z M170.812 17.56 l-2.74 2.44 l-5.2 0 l-2.74 -2.44 l0 -3.78 l-1.22 -1.06 l1.22 -1.08 l0 -3.86 l2.74 -2.44 l5.16 0 l2.74 2.44 l0.04 3.06 l-2.14 0 l0 -1.94 l-1.52 -1.42 l-3.36 0 l-1.52 1.32 l0 7.74 l1.52 1.32 l3.36 0 l1.52 -1.42 l0 -1.56 l-2.84 0 l0 -2.14 l4.98 0 l0 4.82 z"></path></g></svg>